<?xml version="1.0" standalone="no"?>
<!DOCTYPE svg PUBLIC "-//W3C//DTD SVG 20010904//EN"
 "http://www.w3.org/TR/2001/REC-SVG-20010904/DTD/svg10.dtd">
<svg version="1.0" xmlns="http://www.w3.org/2000/svg"
 width="1264.000000pt" height="1264.000000pt" viewBox="0 0 1264.000000 1264.000000"
 preserveAspectRatio="xMidYMid meet">
<metadata>
Created by potrace 1.11, written by Peter Selinger 2001-2013
</metadata>
<g transform="translate(0.000000,1264.000000) scale(0.100000,-0.100000)"
fill="#000000" stroke="none">
<path d="M3549 9576 c-2 -3 -18 -7 -34 -10 -17 -2 -30 -5 -30 -6 0 -1 -10 -3
-23 -6 -72 -13 -255 -109 -447 -235 -181 -119 -146 -112 -580 -115 -401 -3
-452 -6 -560 -28 -67 -14 -175 -66 -212 -103 -13 -12 -29 -26 -36 -30 -20 -12
-112 -131 -242 -313 -158 -220 -177 -243 -260 -325 -54 -53 -98 -83 -176 -124
-192 -99 -298 -182 -365 -287 -49 -77 -88 -204 -99 -324 -3 -25 -8 -58 -12
-75 -4 -16 -7 -32 -8 -35 0 -3 -11 -27 -23 -54 -12 -27 -22 -50 -22 -52 0 -2
-21 -35 -48 -73 -49 -72 -98 -131 -202 -241 -58 -63 -111 -153 -126 -215 -4
-16 -9 -34 -13 -40 -3 -5 -6 -19 -7 -30 -1 -11 -5 -33 -9 -50 -15 -59 -13
-310 2 -377 39 -172 79 -241 218 -381 61 -62 128 -134 150 -162 22 -27 45 -54
51 -60 6 -5 71 -90 144 -188 73 -98 151 -195 174 -217 64 -60 110 -100 118
-100 4 0 13 -6 20 -13 20 -20 157 -84 208 -97 103 -27 148 -32 275 -31 105 1
129 2 256 16 49 6 59 4 85 -18 49 -41 139 -81 214 -94 78 -14 227 -4 320 22
30 9 62 18 70 20 40 10 142 50 200 77 36 17 76 35 90 40 27 11 214 12 320 2
36 -3 93 -6 127 -7 35 -1 63 -6 63 -10 0 -5 4 -6 9 -3 15 10 133 -6 136 -18 1
-6 21 -63 44 -126 36 -101 52 -183 53 -275 0 -26 -13 -135 -22 -180 -6 -27
-12 -59 -14 -71 -2 -12 -14 -54 -27 -95 -12 -41 -24 -81 -27 -89 -2 -8 -4 -58
-5 -110 -1 -96 27 -238 59 -299 8 -14 14 -29 14 -33 0 -24 100 -206 143 -263
105 -138 231 -222 394 -264 91 -23 221 -65 268 -85 17 -8 48 -19 70 -26 22 -7
45 -15 50 -19 6 -3 15 -6 21 -7 6 -1 27 -9 45 -17 104 -47 293 -124 389 -157
l110 -38 192 -1 c161 -1 204 2 258 17 133 39 259 111 459 261 68 51 80 56 106
49 42 -12 146 -11 192 1 21 6 41 11 45 11 24 2 194 96 218 120 3 3 26 22 52
43 86 69 173 162 253 272 66 90 73 98 135 141 38 27 290 154 305 154 6 0 121
53 252 116 61 30 116 54 122 54 6 0 11 4 11 9 0 5 14 12 30 16 17 4 30 10 30
14 0 4 16 13 35 19 40 15 133 82 191 139 100 97 158 204 219 398 55 175 68
194 202 296 136 103 250 219 294 299 l16 28 49 -46 c51 -48 166 -132 180 -132
4 0 15 -6 23 -13 9 -8 43 -23 76 -35 142 -50 430 -132 583 -166 10 -2 41 -11
68 -19 27 -8 51 -15 54 -15 3 0 25 -6 50 -13 25 -7 50 -13 55 -14 39 -9 112
-57 177 -118 93 -87 113 -102 203 -157 209 -128 396 -164 544 -104 36 14 42
14 70 0 17 -9 33 -16 36 -17 3 0 26 -9 52 -20 69 -30 97 -42 103 -44 3 -1 18
-7 33 -13 16 -7 34 -12 41 -12 6 0 16 -4 22 -9 9 -8 66 -24 129 -37 48 -10
235 -11 235 -1 0 4 4 5 10 2 11 -7 131 27 205 58 47 20 194 103 205 117 17 20
354 246 435 291 33 18 62 35 65 38 3 4 36 21 75 40 111 53 190 122 259 226
103 155 152 318 154 513 1 131 -8 165 -82 317 -63 128 -106 242 -111 294 -1
14 -5 33 -8 41 -11 26 1 162 21 247 17 75 23 245 10 293 -35 129 -106 243
-233 375 -121 126 -162 188 -215 319 -27 69 -60 161 -64 181 -2 6 -13 44 -26
85 -13 41 -24 77 -25 80 -1 3 -4 12 -7 20 -3 8 -11 35 -19 60 -7 25 -16 49
-21 55 -4 5 -8 16 -8 25 0 8 -18 52 -41 97 -81 162 -219 258 -509 352 -69 22
-180 59 -248 81 -238 77 -292 117 -494 360 -135 163 -207 233 -295 286 -108
65 -166 80 -348 89 -49 3 -101 7 -115 10 -14 3 -56 10 -95 15 -38 6 -82 13
-96 15 -15 3 -44 7 -65 10 -22 3 -48 7 -59 9 -11 2 -45 7 -75 11 -30 4 -64 9
-75 11 -76 14 -236 20 -310 11 -91 -12 -107 -17 -199 -67 -85 -45 -189 -83
-260 -95 -17 -3 -38 -8 -46 -10 -39 -12 -106 -17 -230 -20 -153 -2 -205 -12
-293 -56 -91 -46 -144 -85 -222 -165 -80 -81 -95 -99 -95 -114 0 -5 -4 -10 -8
-10 -5 0 -16 -16 -25 -35 -15 -31 -20 -35 -44 -29 -16 4 -67 8 -116 10 -67 2
-101 -2 -145 -17 -31 -11 -72 -22 -89 -24 -18 -3 -50 -7 -70 -10 -21 -3 -85
-6 -143 -5 -156 0 -217 9 -333 46 -103 33 -109 34 -197 34 -69 0 -92 -2 -160
-15 -14 -3 -38 -8 -55 -11 -38 -7 -249 -78 -340 -115 -38 -16 -76 -29 -82 -29
-7 0 -13 -4 -13 -8 0 -5 -6 -9 -12 -9 -17 -1 -128 -41 -151 -54 -15 -8 -22 -5
-40 18 -12 15 -31 35 -42 45 -11 9 -33 29 -50 43 -29 25 -126 75 -146 75 -5 0
-21 24 -35 53 -13 28 -32 66 -42 82 -31 53 -75 120 -81 125 -3 3 -19 23 -36
45 -90 123 -259 246 -370 269 -16 4 -41 9 -55 13 -14 3 -212 7 -440 8 -452 3
-456 3 -595 41 -26 7 -210 15 -216 10z m5596 -275 c0 -1 20 -4 45 -6 66 -6
185 -22 185 -25 0 -1 11 -3 25 -5 14 -2 39 -6 55 -9 164 -32 266 -45 422 -51
90 -3 152 -17 181 -39 50 -37 163 -158 250 -266 115 -144 148 -180 217 -235
28 -22 52 -43 55 -46 12 -14 221 -114 260 -124 3 0 28 -8 55 -17 28 -9 77 -24
110 -33 33 -10 96 -29 140 -43 44 -14 85 -27 91 -28 31 -5 183 -85 208 -109
23 -23 83 -135 90 -170 1 -5 14 -46 28 -90 23 -69 31 -98 44 -150 7 -33 77
-225 101 -278 55 -125 134 -238 239 -345 204 -204 226 -255 188 -419 -58 -250
-25 -457 122 -763 52 -109 55 -119 55 -190 -1 -41 -3 -85 -5 -96 -2 -12 -7
-37 -10 -57 -8 -51 -33 -124 -64 -187 -41 -82 -102 -138 -217 -195 -55 -27
-102 -53 -105 -56 -3 -3 -18 -13 -35 -22 -27 -14 -156 -95 -181 -114 -5 -4
-17 -12 -27 -18 -54 -33 -211 -149 -238 -176 -24 -24 -141 -84 -169 -87 -3 0
-18 -6 -35 -12 -16 -6 -61 -11 -100 -11 -61 0 -87 3 -130 15 -5 2 -23 6 -40
11 -16 4 -82 34 -145 65 -140 70 -200 90 -277 94 -50 3 -135 -16 -153 -34 -7
-7 -60 -5 -95 4 -35 10 -149 68 -153 78 -2 5 -9 8 -15 8 -7 0 -25 11 -41 25
-16 14 -32 25 -35 25 -3 0 -38 29 -76 65 -39 36 -99 83 -135 105 -60 36 -202
93 -260 104 -14 2 -32 7 -40 10 -8 3 -32 8 -54 11 -21 3 -42 8 -47 11 -6 3
-24 7 -42 10 -40 5 -64 10 -147 29 -36 9 -74 18 -85 20 -38 8 -110 27 -125 32
-8 4 -19 7 -25 8 -32 8 -137 52 -177 74 -79 44 -166 123 -213 193 -20 31 -41
151 -49 280 -2 21 -5 40 -8 43 -8 8 1 85 13 117 6 14 24 38 40 52 l30 27 62
-35 c34 -19 89 -42 122 -51 76 -20 219 -21 310 -1 90 19 165 41 210 61 90 39
279 62 355 43 85 -20 137 -70 235 -220 137 -209 240 -324 356 -396 106 -65
209 -75 365 -36 234 58 303 48 449 -64 113 -88 212 -123 325 -117 86 4 173 36
229 83 62 53 80 88 77 151 -7 130 -140 187 -273 117 -67 -36 -95 -29 -213 59
-191 142 -400 173 -676 101 -34 -9 -73 -16 -88 -16 -53 0 -144 72 -222 175
-53 69 -124 175 -119 175 15 0 -66 102 -126 160 -120 117 -288 179 -469 174
-75 -2 -168 -12 -180 -19 -4 -2 -17 -6 -31 -9 -47 -10 -65 -15 -174 -51 -111
-38 -244 -56 -282 -40 -10 5 -21 8 -25 7 -10 -2 -28 60 -24 88 2 14 9 45 16
70 7 25 14 54 16 65 2 11 7 31 10 45 37 171 37 500 0 760 -4 25 -9 63 -12 85
-21 151 -108 365 -180 441 -6 7 -21 25 -35 40 -34 41 -133 123 -209 175 -36
24 -66 47 -68 52 -2 4 -7 7 -12 7 -4 0 -41 20 -82 45 -72 43 -127 88 -129 106
-1 5 -2 12 -3 17 -1 4 -17 36 -36 71 -33 61 -187 231 -210 231 -5 0 -14 8 -19
19 -7 13 -6 24 7 41 42 57 117 122 174 151 61 31 66 32 213 34 236 3 410 42
595 133 123 60 148 68 218 66 31 -1 57 -3 57 -3z m-5520 -56 c32 -9 74 -18 94
-20 20 -3 47 -8 61 -11 14 -4 219 -7 455 -8 l430 -1 58 -29 c77 -37 150 -113
211 -217 83 -144 129 -213 165 -248 36 -35 108 -73 126 -65 5 3 -6 -7 -25 -23
-91 -74 -187 -189 -261 -315 -18 -32 -36 -58 -39 -58 -3 0 -16 26 -30 58 -60
141 -175 264 -295 317 -141 62 -329 66 -510 10 -27 -9 -138 -59 -245 -112
-226 -112 -218 -109 -291 -123 -62 -12 -140 -7 -224 13 -74 19 -112 28 -128
32 -10 2 -28 7 -40 11 -12 4 -31 8 -42 9 -11 2 -39 8 -63 14 -77 21 -209 17
-276 -8 -14 -6 -26 -8 -26 -5 0 12 -163 -82 -212 -123 -29 -24 -59 -43 -65
-43 -7 0 -13 -4 -13 -8 0 -22 -217 -112 -301 -126 -74 -11 -142 -29 -167 -42
-15 -8 -31 -14 -36 -14 -9 0 -98 -42 -106 -50 -3 -3 -32 -23 -65 -45 -126 -85
-283 -263 -430 -487 -39 -61 -43 -73 -42 -121 4 -89 68 -154 159 -161 78 -6
132 30 185 123 33 56 117 184 146 220 12 14 54 58 95 98 94 93 179 136 315
158 121 20 252 64 322 108 83 52 171 112 173 119 2 4 10 8 18 8 8 0 14 5 14
10 0 6 7 10 15 10 8 0 15 4 15 8 0 16 137 62 170 56 52 -8 89 -16 120 -24 19
-5 46 -11 60 -14 32 -6 165 -33 205 -42 64 -14 279 -13 335 2 30 9 60 16 65
18 47 11 138 49 244 101 216 108 328 144 436 145 160 0 257 -124 294 -375 11
-77 13 -132 6 -155 -6 -20 -163 -128 -265 -183 -36 -19 -107 -58 -159 -86 -52
-28 -97 -51 -102 -51 -4 0 -9 -3 -11 -7 -1 -5 -23 -19 -48 -32 -158 -84 -318
-226 -362 -322 -26 -56 -42 -106 -52 -164 -3 -16 -8 -39 -10 -50 -12 -63 -21
-147 -31 -284 -3 -36 -9 -69 -13 -73 -7 -7 -104 57 -168 111 -36 30 -218 121
-254 127 -3 0 -25 6 -50 13 -109 31 -275 16 -390 -37 -51 -23 -168 -104 -228
-157 -64 -56 -79 -69 -122 -98 -25 -17 -47 -33 -50 -37 -11 -13 -97 -58 -135
-70 -55 -18 -100 -14 -143 12 -21 12 -39 24 -42 27 -25 28 -210 112 -291 132
-108 28 -299 21 -361 -12 -10 -5 -18 -7 -18 -3 0 3 -7 1 -15 -6 -8 -7 -15 -10
-15 -6 0 4 -13 0 -29 -8 -34 -18 -90 -23 -113 -10 -9 5 -27 24 -40 43 -34 50
-71 73 -125 78 -41 4 -54 1 -89 -25 -102 -74 -98 -195 9 -303 130 -130 280
-158 490 -91 102 33 173 41 242 29 45 -8 151 -56 195 -87 43 -31 140 -77 190
-90 98 -26 233 -4 361 60 51 26 187 114 199 129 3 4 25 22 50 41 25 19 50 40
55 45 6 6 28 24 50 40 22 16 42 32 45 35 3 3 23 15 45 26 48 23 192 25 240 4
17 -7 32 -14 35 -15 44 -15 161 -89 203 -129 15 -14 30 -26 33 -26 3 0 20 -11
37 -24 18 -13 50 -32 72 -41 66 -30 66 -28 40 -110 -12 -41 -32 -91 -44 -111
-17 -29 -88 -121 -111 -144 -3 -3 -11 -14 -17 -25 -67 -108 -87 -147 -115
-226 l-33 -90 -60 7 c-33 3 -73 8 -90 9 -172 20 -442 25 -524 10 -36 -7 -66
-13 -66 -13 0 -1 -137 -63 -179 -81 -27 -12 -58 -23 -70 -25 -12 -2 -40 -9
-64 -15 -92 -25 -206 -30 -243 -11 -13 7 -31 21 -40 32 -9 10 -21 18 -28 18
-6 0 -11 4 -11 8 0 16 -104 45 -164 45 -59 0 -165 -9 -209 -19 -12 -3 -65 -7
-117 -9 -141 -7 -242 24 -339 103 -65 53 -79 68 -171 192 -47 63 -90 122 -97
130 -7 8 -44 56 -83 105 -86 110 -138 169 -225 260 -67 71 -98 124 -116 205
-6 25 -13 54 -15 65 -10 44 -5 165 9 225 23 97 27 102 161 245 16 17 45 50 65
75 20 25 38 47 41 50 3 3 20 28 38 55 17 28 35 55 40 61 16 18 69 137 85 189
23 76 29 105 33 170 15 201 61 264 262 360 198 95 324 204 482 419 50 66 94
126 99 132 4 5 14 21 21 35 7 13 16 26 19 29 3 3 24 32 46 65 22 33 66 85 97
116 76 75 85 77 468 84 225 4 405 11 455 19 38 6 105 27 153 48 26 12 50 22
53 22 13 2 189 110 208 127 11 11 23 19 26 19 4 0 21 11 39 25 18 14 37 25 41
25 5 0 16 6 24 14 18 15 131 77 131 72 0 -2 16 2 36 9 51 17 111 17 179 0z
m2960 -538 c22 -8 54 -19 70 -23 17 -4 32 -8 35 -9 3 -1 32 -5 65 -9 33 -4 71
-10 85 -12 14 -3 79 -5 145 -5 111 0 161 3 255 17 19 3 47 7 62 9 15 2 46 9
70 16 79 23 138 17 225 -22 24 -10 45 -19 48 -19 16 0 122 -76 159 -113 22
-23 58 -74 78 -112 38 -72 78 -121 137 -165 18 -14 38 -29 45 -35 14 -11 39
-26 116 -68 83 -45 221 -142 256 -179 75 -79 128 -184 148 -293 31 -170 39
-256 40 -465 1 -341 -36 -463 -189 -616 -77 -78 -134 -153 -139 -186 -1 -7 -4
-17 -8 -23 -26 -42 -35 -257 -13 -345 3 -14 8 -38 10 -55 3 -16 7 -49 11 -71
5 -36 0 -53 -41 -133 -26 -50 -51 -91 -56 -91 -5 0 -9 -6 -9 -14 0 -20 -173
-194 -245 -247 -33 -24 -61 -47 -63 -51 -2 -5 -9 -8 -15 -8 -15 0 -94 -74
-129 -120 -54 -72 -83 -135 -112 -245 -53 -206 -122 -311 -247 -379 -57 -31
-140 -72 -174 -87 -11 -5 -27 -13 -35 -18 -8 -5 -37 -19 -65 -31 -59 -26 -135
-61 -223 -101 -35 -16 -70 -29 -78 -29 -8 0 -14 -3 -14 -7 0 -5 -29 -21 -65
-38 -36 -16 -65 -33 -65 -37 0 -5 -5 -8 -11 -8 -16 0 -170 -103 -203 -136 -16
-16 -61 -72 -99 -124 -123 -166 -286 -309 -384 -337 -34 -9 -49 -10 -63 -3
-30 16 -104 17 -161 4 -63 -15 -132 -54 -279 -159 -112 -79 -229 -139 -303
-155 -71 -14 -209 -5 -282 19 -33 11 -116 47 -185 79 -200 95 -565 238 -600
235 -3 0 -16 4 -30 9 -14 5 -36 12 -50 14 -84 15 -126 39 -195 108 -38 39 -78
82 -88 96 -50 68 -120 241 -130 324 -3 21 2 64 10 95 21 80 21 82 32 126 6 22
13 56 16 75 3 19 8 43 11 53 3 10 8 39 10 65 3 26 7 61 9 77 6 42 6 225 0 255
-3 14 -8 41 -11 60 -11 63 -42 154 -78 230 -77 163 -65 254 61 458 26 43 50
79 53 82 12 12 93 171 96 190 0 3 4 12 7 20 12 29 37 107 41 131 3 13 5 24 6
24 1 0 3 9 4 20 1 11 8 43 14 70 6 28 14 66 17 85 3 19 7 44 9 55 2 11 7 47
11 80 3 33 9 74 11 90 3 17 7 50 10 75 3 25 7 59 8 75 13 111 24 180 40 230
29 95 126 178 368 312 57 32 106 62 110 68 4 5 8 7 8 3 0 -6 154 81 176 100 5
5 21 15 35 22 78 41 247 195 285 259 10 17 22 31 26 31 4 0 8 5 8 10 0 6 11
27 23 48 13 20 63 112 110 204 116 225 180 311 262 355 23 13 168 55 262 76 7
2 16 6 19 10 4 4 13 7 20 7 12 0 218 77 274 102 14 6 30 13 35 14 6 2 67 23
138 48 70 24 127 42 127 39 0 -3 7 0 15 7 8 7 15 10 15 8 0 -2 30 3 67 13 79
19 162 18 218 -4z"/>
<path d="M8820 8827 c-79 -10 -132 -42 -160 -97 -11 -22 -18 -40 -15 -40 3 0
2 -8 -3 -17 -20 -34 30 -127 83 -156 33 -18 97 -26 124 -15 14 5 58 10 98 10
120 1 195 -49 340 -226 161 -198 305 -302 480 -347 113 -28 117 -29 243 -34
141 -5 230 -14 251 -26 9 -4 18 -7 20 -4 13 12 93 -64 158 -150 62 -83 168
-197 223 -240 31 -24 128 -85 190 -118 37 -20 75 -42 83 -49 64 -54 155 -168
155 -195 0 -7 4 -13 8 -13 6 0 24 -35 36 -70 1 -3 10 -23 19 -45 24 -52 68
-207 62 -213 -3 -3 0 -11 6 -19 6 -7 9 -13 5 -13 -3 0 1 -19 10 -42 35 -95 42
-104 105 -138 114 -60 252 62 218 193 -7 24 -5 27 17 27 28 0 28 -1 -8 125
-70 251 -170 440 -302 571 -67 66 -111 97 -226 157 -70 36 -116 69 -181 128
-14 13 -68 76 -120 139 -51 63 -107 128 -124 144 -37 35 -125 93 -171 112 -67
28 -214 52 -373 60 -99 5 -174 16 -216 34 -11 4 -36 14 -55 21 -74 27 -165
105 -287 245 -89 102 -160 168 -228 212 -34 21 -123 63 -144 67 -12 2 -25 6
-30 9 -28 18 -197 25 -291 13z"/>
<path d="M9576 7555 c-47 -16 -80 -46 -102 -93 -43 -91 36 -210 146 -218 99
-7 179 -55 192 -115 2 -8 5 -16 8 -19 3 -3 14 -21 24 -40 35 -62 111 -142 177
-187 51 -36 153 -87 196 -98 15 -5 35 -10 43 -12 97 -29 190 30 209 131 9 47
-5 93 -37 129 -21 24 -85 57 -110 57 -28 0 -130 55 -158 85 -14 15 -41 60 -60
101 -81 167 -252 281 -435 289 -31 2 -73 -3 -93 -10z"/>
<path d="M3172 7664 c-63 -13 -157 -51 -188 -76 -9 -7 -43 -39 -75 -70 -65
-64 -97 -83 -154 -94 -36 -6 -63 -7 -161 -3 -92 3 -185 -90 -170 -172 3 -13 5
-31 5 -40 1 -26 70 -97 99 -103 143 -29 190 -28 340 7 63 16 162 76 227 140
38 38 81 75 96 82 34 18 101 20 171 4 75 -17 126 -1 174 55 34 40 38 52 36
114 -2 61 -73 142 -124 142 -10 0 -18 3 -18 8 0 8 -11 9 -121 15 -41 2 -103
-2 -137 -9z"/>
<path d="M6635 8242 c-1 -2 -14 -5 -29 -7 -14 -3 -36 -7 -48 -9 -13 -2 -45
-12 -73 -21 -176 -60 -285 -166 -450 -440 -43 -71 -82 -131 -87 -133 -4 -2 -8
-10 -8 -18 0 -8 -33 -47 -72 -88 -57 -57 -91 -82 -158 -114 -47 -22 -98 -44
-115 -47 -16 -4 -37 -9 -45 -12 -8 -3 -22 -7 -30 -9 -156 -30 -327 -95 -410
-155 -100 -71 -139 -126 -248 -339 -41 -80 -78 -146 -83 -148 -5 -2 -9 -8 -9
-14 0 -20 -92 -119 -164 -176 -84 -67 -148 -132 -184 -187 -15 -22 -30 -42
-33 -45 -29 -22 -127 -268 -144 -360 -3 -19 -8 -44 -10 -55 -2 -11 -4 -20 -5
-20 -4 0 -15 -81 -27 -195 -11 -106 -9 -310 3 -318 6 -4 13 -14 16 -23 8 -20
85 -59 116 -59 13 0 25 -6 28 -14 7 -17 49 -29 75 -21 17 6 48 50 50 72 1 5 5
16 10 25 8 15 12 79 20 298 2 55 35 209 60 284 42 121 89 193 183 279 130 119
216 209 261 272 41 57 124 213 159 300 31 73 94 145 150 170 50 22 86 37 96
40 11 2 86 27 100 32 8 3 20 7 25 9 251 66 440 170 552 302 45 53 62 75 103
138 19 29 144 246 149 259 2 6 7 12 10 15 3 3 18 24 33 46 66 102 176 154 333
158 104 3 157 -9 240 -52 42 -23 74 -32 106 -32 84 0 151 69 155 159 3 79 -30
120 -136 170 -66 30 -149 60 -185 66 -11 2 -38 7 -60 11 -40 7 -214 12 -220 6z"/>
<path d="M7675 7486 c-30 -13 -84 -70 -86 -90 0 -6 -2 -20 -4 -31 -2 -11 -6
-47 -9 -80 -12 -129 -49 -261 -88 -310 -5 -5 -17 -22 -28 -36 -11 -15 -50 -45
-87 -67 -81 -48 -158 -119 -202 -185 -61 -90 -85 -170 -90 -297 -1 -47 -5 -88
-8 -92 -2 -5 0 -8 4 -8 5 0 10 -16 11 -36 4 -57 28 -160 63 -269 19 -62 32
-122 32 -159 1 -55 -1 -61 -32 -87 -19 -15 -55 -33 -82 -39 -45 -11 -171 -9
-244 4 -228 39 -438 20 -592 -56 -115 -56 -237 -174 -289 -280 -12 -24 -37
-74 -57 -113 -19 -38 -38 -81 -42 -95 -17 -55 -110 -253 -139 -295 -54 -76
-122 -131 -160 -127 -154 14 -361 5 -441 -21 -5 -2 -21 -7 -35 -11 -111 -36
-184 -86 -305 -211 -55 -56 -113 -110 -128 -120 -35 -22 -95 -21 -140 2 -18 9
-53 16 -79 16 -117 -2 -191 -130 -137 -238 18 -35 34 -50 78 -72 31 -15 58
-28 61 -28 3 -1 30 -6 60 -12 107 -21 186 -13 279 28 52 24 131 86 176 139 68
79 134 135 195 164 63 30 68 31 200 29 74 0 155 -2 180 -3 197 -9 372 121 513
380 36 66 149 335 160 380 11 45 65 118 114 154 95 69 258 97 433 73 183 -25
247 -27 345 -13 121 17 258 87 325 164 18 20 47 66 64 102 27 57 31 76 31 150
0 105 -7 148 -39 240 -70 199 -87 295 -73 399 7 46 15 60 55 100 26 25 72 61
104 78 141 80 248 239 303 448 44 172 52 307 19 369 -34 67 -117 94 -189 62z"/>
<path d="M6100 6640 c-41 -15 -97 -40 -123 -55 -58 -33 -167 -137 -194 -186
-19 -34 -63 -144 -62 -154 1 -13 -14 -68 -24 -88 -37 -70 -123 -143 -231 -197
-66 -33 -94 -120 -66 -204 20 -61 97 -111 156 -100 33 6 174 72 192 91 7 7 18
13 23 13 5 0 46 37 92 83 59 59 92 102 116 151 31 63 76 206 64 206 -8 0 41
65 67 88 25 22 118 62 145 62 21 0 83 63 96 97 26 68 3 167 -46 199 -42 28
-119 25 -205 -6z"/>
</g>
</svg>
